# xmcd CD database file
#
# Track frame offsets:
#	150
#	15035
#	26870
#	40992
#	54730
#	68142
#	83020
#	96205
#	109570
#	123462
#	136507
#	149082
#	162325
#	175582
#	189987
#	204392
#
# Disc length: 2880 seconds
#
# Revision: 2
# Processed by: cddbd v1.5.2PL0 Copyright (c) Steve Scherf et al.
# Submitted via: CDex 1.51
#
DISCID=cf0b3e10
DTITLE=Billie Holliday - Me, myself and I - CD1 The Standards
DYEAR=2006
DGENRE=Jazz
TTITLE0=Georgia On My Mind
TTITLE1=Let's Call The Whole Thing Off
TTITLE2=Nice Work If You Can Get It
TTITLE3=They Can't Take That Away From Me
TTITLE4=Night And Day
TTITLE5=These Foolish Things
TTITLE6=I Loves You, Porgy
TTITLE7=Body And Soul
TTITLE8=The Man I Love
TTITLE9=Summertime
TTITLE10=I Can't Get Started
TTITLE11=I Cover The Waterfront
TTITLE12=What A Little Moonlight Can Do
TTITLE13=I Cried For You
TTITLE14=Easy To Love
TTITLE15=Me, Myself And I
EXTD=YEAR: 2006
EXTT0=
EXTT1=
EXTT2=
EXTT3=
EXTT4=
EXTT5=
EXTT6=
EXTT7=
EXTT8=
EXTT9=
EXTT10=
EXTT11=
EXTT12=
EXTT13=
EXTT14=
EXTT15=
PLAYORDER=
